# xmcd
#
# Track frame offsets: 
#        161
#        34607
#        76805
#        118703
#        146979
#        172667
#        194077
#        229064
#        260806
#        289677
#        319207
#        339669
#
# Disc length: 4782 seconds
#
# Revision: 0
# Processed by: cddbd v1.5.2PL0 Copyright (c) Steve Scherf et al.
# Submitted via: ExactAudioCopy v0.99pb5
#
DISCID=b112ac0c
DTITLE=The S.O.S. Band - The Best Of
DYEAR=1992
DGENRE=R&B
TTITLE0=Just Be Good to Me
TTITLE1=Borrowed Love
TTITLE2=Just the Way You Like It
TTITLE3=The Finest
TTITLE4=No Lies (Special Version)
TTITLE5=No Lies (Dub Mix)  
TTITLE6=Take Your Time (Do It Right)
TTITLE7=No One's Gonna Love You
TTITLE8=Weekend Girl
TTITLE9=Break Up
TTITLE10=I'm Still Missing Your Lov
TTITLE11=Get Out Of My Life
EXTD=
EXTT0=
EXTT1=
EXTT2=
EXTT3=
EXTT4=
EXTT5=
EXTT6=
EXTT7=
EXTT8=
EXTT9=
EXTT10=
EXTT11=
PLAYORDER=
